HIERARCHY
ROOT Joint1
{
	OFFSET 0.000000 0.000000 0.000000
	CHANNELS 6 Xposition Yposition Zposition Xrotation Yrotation Zrotation
	JOINT Joint2
	{
		OFFSET -0.000000 0.000000 1.456275
		CHANNELS 6 Xposition Yposition Zposition Xrotation Yrotation Zrotation
		JOINT Joint3
		{
			OFFSET -0.000000 0.000002 1.471446
			CHANNELS 6 Xposition Yposition Zposition Xrotation Yrotation Zrotation
			JOINT Joint4
			{
				OFFSET 0.625745 0.000000 0.917755
				CHANNELS 6 Xposition Yposition Zposition Xrotation Yrotation Zrotation
				JOINT Joint5
				{
					OFFSET -0.629534 0.000001 0.940221
					CHANNELS 6 Xposition Yposition Zposition Xrotation Yrotation Zrotation
					JOINT Joint6
					{
						OFFSET -0.000001 0.113772 1.960660
						CHANNELS 6 Xposition Yposition Zposition Xrotation Yrotation Zrotation
						JOINT Joint7
						{
							OFFSET -0.669733 -0.113771 0.388340
							CHANNELS 6 Xposition Yposition Zposition Xrotation Yrotation Zrotation
							End Site
							{
								OFFSET 0.005509 0.005509 0.438980
							}
						}
					}
				}
			}
		}
	}
}
MOTION
Frames: 14
Frame Time: 0.041667
0.000000 0.000000 0.000000 -0.000000 1.019410 52.157203 -0.000000 0.000000 1.456275 0.000001 -19.592980 -0.000003 -0.000000 0.000002 1.471446 -0.000003 -1.133464 -53.597591 0.625745 0.000000 0.917755 -0.000004 80.111398 0.000007 -0.629533 0.000001 0.940220 -0.000001 1.709736 52.985541 -0.000001 0.113772 1.960660 -88.303882 152.074517 0.000003 -0.669733 -0.113771 0.388340 0.304181 2.424467 37.917208 
0.000000 0.000000 0.000000 -0.000000 1.019410 53.399228 -0.000000 -0.000000 1.456275 -0.000001 -18.988500 -0.000000 -0.000000 0.000002 1.471446 -0.000002 -1.133463 -54.872999 0.625745 0.000000 0.917755 -0.000001 78.804079 0.000005 -0.629534 0.000001 0.940221 -0.000001 1.709736 54.247347 -0.000001 0.113771 1.960660 -88.303882 153.553171 0.000002 -0.669733 -0.113771 0.388339 0.298303 2.383912 35.608269 
0.000000 0.000000 0.000000 -0.000000 1.019410 54.641261 -0.000000 0.000000 1.456275 -0.000000 -18.384014 0.000001 -0.000000 0.000002 1.471446 -0.000001 -1.133462 -56.148414 0.625745 0.000000 0.917755 -0.000007 77.496761 0.000004 -0.629534 0.000001 0.940221 -0.000001 1.709738 55.509149 -0.000001 0.113772 1.960661 -88.303882 155.031852 0.000002 -0.669733 -0.113771 0.388339 0.290793 2.343624 33.299385 
0.000000 0.000000 0.000000 -0.000000 1.019410 55.883293 -0.000000 0.000000 1.456275 -0.000000 -17.779532 0.000001 -0.000000 0.000002 1.471446 -0.000003 -1.133464 -57.423825 0.625745 0.000000 0.917754 -0.000001 76.189435 0.000003 -0.629533 0.000001 0.940221 -0.000001 1.709739 56.770955 -0.000001 0.113772 1.960660 -88.303882 156.510534 0.000003 -0.669733 -0.113771 0.388340 0.281671 2.303672 30.990563 
0.000000 0.000000 0.000000 -0.000000 1.019410 57.125325 -0.000000 0.000000 1.456275 -0.000000 -17.175050 -0.000000 -0.000000 0.000002 1.471446 -0.000003 -1.133466 -58.699247 0.625745 0.000000 0.917755 -0.000006 74.882116 0.000004 -0.629533 0.000001 0.940221 -0.000001 1.709738 58.032757 -0.000001 0.113772 1.960660 -88.303882 157.989201 0.000002 -0.669733 -0.113770 0.388341 0.270944 2.264119 28.681798 
0.000000 0.000000 0.000000 -0.000000 1.019410 58.367361 -0.000000 0.000000 1.456275 0.000000 -16.570570 0.000003 -0.000000 0.000002 1.471446 -0.000002 -1.133464 -59.974662 0.625745 0.000000 0.917755 -0.000002 73.574798 0.000004 -0.629534 0.000001 0.940221 -0.000001 1.709738 59.294559 -0.000001 0.113772 1.960660 -88.303882 159.467869 0.000002 -0.669733 -0.113771 0.388341 0.258631 2.225031 26.373088 
0.000000 0.000000 0.000000 -0.000000 1.019410 59.609383 -0.000000 0.000000 1.456275 -0.000000 -15.966086 -0.000001 -0.000000 0.000002 1.471446 -0.000003 -1.133465 -61.250077 0.625745 0.000000 0.917755 -0.000004 72.267479 0.000002 -0.629534 0.000001 0.940221 -0.000001 1.709737 60.556368 -0.000001 0.113773 1.960661 -88.303882 160.946537 0.000001 -0.669733 -0.113771 0.388341 0.244750 2.186470 24.064425 
0.000000 0.000000 0.000000 -0.000000 1.019410 60.851419 -0.000000 0.000000 1.456275 0.000001 -15.361603 0.000000 -0.000000 0.000002 1.471445 -0.000003 -1.133465 -62.525491 0.625745 0.000000 0.917754 -0.000003 70.960154 0.000003 -0.629533 0.000001 0.940221 -0.000001 1.709736 61.818178 -0.000001 0.113772 1.960661 -88.303882 162.425218 0.000001 -0.669733 -0.113771 0.388340 0.229332 2.148498 21.755814 
0.000000 0.000000 0.000000 -0.000000 1.019410 62.093441 -0.000000 0.000000 1.456275 0.000000 -14.757119 0.000001 -0.000000 0.000002 1.471445 -0.000003 -1.133464 -63.800906 0.625744 0.000000 0.917755 -0.000001 69.652835 0.000003 -0.629534 0.000001 0.940221 -0.000001 1.709737 63.079980 -0.000001 0.113772 1.960660 -88.303882 163.903886 0.000002 -0.669733 -0.113771 0.388339 0.212388 2.111179 19.447253 
0.000000 0.000000 0.000000 -0.000000 1.019410 63.335477 -0.000000 -0.000000 1.456275 -0.000001 -14.152638 -0.000001 -0.000000 0.000002 1.471446 -0.000002 -1.133465 -65.076321 0.625744 0.000000 0.917755 -0.000001 68.345509 0.000002 -0.629534 0.000001 0.940221 -0.000001 1.709739 64.341775 -0.000001 0.113772 1.960661 -88.303882 165.382540 0.000002 -0.669733 -0.113771 0.388341 0.193963 2.074570 17.138738 
0.000000 0.000000 0.000000 -0.000000 1.019410 64.577499 -0.000000 0.000000 1.456275 -0.000000 -13.548154 0.000002 -0.000000 0.000002 1.471446 -0.000003 -1.133464 -66.351736 0.625745 0.000000 0.917755 -0.000002 67.038197 0.000003 -0.629534 0.000001 0.940221 -0.000000 1.709739 65.603584 -0.000001 0.113772 1.960661 -88.303882 166.861221 0.000002 -0.669733 -0.113770 0.388339 0.174070 2.038735 14.830257 
0.000000 0.000000 0.000000 -0.000000 1.019410 65.819535 -0.000000 -0.000000 1.456275 -0.000000 -12.943672 0.000001 -0.000000 0.000002 1.471446 -0.000003 -1.133464 -67.627151 0.625745 0.000000 0.917755 -0.000001 65.730872 0.000002 -0.629534 0.000001 0.940221 -0.000001 1.709739 66.865394 -0.000001 0.113772 1.960660 -88.303882 168.339902 -0.000001 -0.669733 -0.113771 0.388339 0.152754 2.003728 12.521811 
0.000000 0.000000 0.000000 -0.000000 1.019410 67.061557 -0.000000 -0.000000 1.456275 -0.000000 -12.339191 0.000000 -0.000000 0.000002 1.471446 -0.000003 -1.133467 -68.902566 0.625744 0.000000 0.917755 -0.000001 64.423553 0.000002 -0.629534 0.000001 0.940221 -0.000001 1.709736 68.127196 -0.000001 0.113772 1.960660 -88.303882 169.818570 -0.000000 -0.669733 -0.113771 0.388340 0.130042 1.969608 10.213410 
0.000000 0.000000 0.000000 -0.000000 1.019410 68.303579 -0.000000 0.000000 1.456275 -0.000000 -11.734713 0.000002 -0.000000 0.000002 1.471445 -0.000004 -1.133464 -70.177981 0.625745 0.000000 0.917755 -0.000003 63.116234 0.000002 -0.629533 0.000001 0.940221 -0.000001 1.709735 69.388991 -0.000001 0.113771 1.960660 -88.303882 171.297210 0.000001 -0.669733 -0.113771 0.388339 0.105978 1.936430 7.905054 
